<?xml version="1.0" encoding="UTF-8" standalone="no"?>
<!DOCTYPE svg PUBLIC "-//W3C//DTD SVG 1.1//EN"
 "http://www.w3.org/Graphics/SVG/1.1/DTD/svg11.dtd">
<!-- Generated by graphviz version 2.28.0 (20121128.1615)
 -->
<!-- Title: G Pages: 1 -->
<svg width="447pt" height="2386pt"
 viewBox="0.00 0.00 447.00 2386.00" xmlns="http://www.w3.org/2000/svg" xmlns:xlink="http://www.w3.org/1999/xlink">
<g id="graph1" class="graph" transform="scale(1 1) rotate(0) translate(4 2382)">
<title>G</title>
<polygon fill="white" stroke="white" points="-4,5 -4,-2382 444,-2382 444,5 -4,5"/>
<g id="graph2" class="cluster"><title>cluster_Global</title>
<polyline fill="none" stroke="gray" points="20,-44 419,-44 "/>
<path fill="none" stroke="gray" d="M419,-44C425,-44 431,-50 431,-56"/>
<polyline fill="none" stroke="gray" points="431,-56 431,-2358 "/>
<path fill="none" stroke="gray" d="M431,-2358C431,-2364 425,-2370 419,-2370"/>
<polyline fill="none" stroke="gray" points="419,-2370 20,-2370 "/>
<path fill="none" stroke="gray" d="M20,-2370C14,-2370 8,-2364 8,-2358"/>
<polyline fill="none" stroke="gray" points="8,-2358 8,-56 "/>
<path fill="none" stroke="gray" d="M8,-56C8,-50 14,-44 20,-44"/>
<text text-anchor="middle" x="219.5" y="-2355" font-family="Times,serif" font-size="11.00" fill="gray">Global</text>
</g>
<g id="graph3" class="cluster"><title>cluster_\OSS</title>
<polyline fill="none" stroke="gray" points="28,-52 411,-52 "/>
<path fill="none" stroke="gray" d="M411,-52C417,-52 423,-58 423,-64"/>
<polyline fill="none" stroke="gray" points="423,-64 423,-2329 "/>
<path fill="none" stroke="gray" d="M423,-2329C423,-2335 417,-2341 411,-2341"/>
<polyline fill="none" stroke="gray" points="411,-2341 28,-2341 "/>
<path fill="none" stroke="gray" d="M28,-2341C22,-2341 16,-2335 16,-2329"/>
<polyline fill="none" stroke="gray" points="16,-2329 16,-64 "/>
<path fill="none" stroke="gray" d="M16,-64C16,-58 22,-52 28,-52"/>
<text text-anchor="middle" x="219.5" y="-2326" font-family="Times,serif" font-size="11.00" fill="gray">OSS</text>
</g>
<g id="graph4" class="cluster"><title>cluster_\OSS\Core</title>
<polyline fill="none" stroke="gray" points="259,-295 347,-295 "/>
<path fill="none" stroke="gray" d="M347,-295C353,-295 359,-301 359,-307"/>
<polyline fill="none" stroke="gray" points="359,-307 359,-464 "/>
<path fill="none" stroke="gray" d="M359,-464C359,-470 353,-476 347,-476"/>
<polyline fill="none" stroke="gray" points="347,-476 259,-476 "/>
<path fill="none" stroke="gray" d="M259,-476C253,-476 247,-470 247,-464"/>
<polyline fill="none" stroke="gray" points="247,-464 247,-307 "/>
<path fill="none" stroke="gray" d="M247,-307C247,-301 253,-295 259,-295"/>
<text text-anchor="middle" x="303" y="-461" font-family="Times,serif" font-size="11.00" fill="gray">Core</text>
</g>
<g id="graph5" class="cluster"><title>cluster_\OSS\Http</title>
<polyline fill="none" stroke="gray" points="229,-106 377,-106 "/>
<path fill="none" stroke="gray" d="M377,-106C383,-106 389,-112 389,-118"/>
<polyline fill="none" stroke="gray" points="389,-118 389,-275 "/>
<path fill="none" stroke="gray" d="M389,-275C389,-281 383,-287 377,-287"/>
<polyline fill="none" stroke="gray" points="377,-287 229,-287 "/>
<path fill="none" stroke="gray" d="M229,-287C223,-287 217,-281 217,-275"/>
<polyline fill="none" stroke="gray" points="217,-275 217,-118 "/>
<path fill="none" stroke="gray" d="M217,-118C217,-112 223,-106 229,-106"/>
<text text-anchor="middle" x="303" y="-272" font-family="Times,serif" font-size="11.00" fill="gray">Http</text>
</g>
<g id="graph6" class="cluster"><title>cluster_\OSS\Model</title>
<polyline fill="none" stroke="gray" points="40,-1375 383,-1375 "/>
<path fill="none" stroke="gray" d="M383,-1375C389,-1375 395,-1381 395,-1387"/>
<polyline fill="none" stroke="gray" points="395,-1387 395,-2300 "/>
<path fill="none" stroke="gray" d="M395,-2300C395,-2306 389,-2312 383,-2312"/>
<polyline fill="none" stroke="gray" points="383,-2312 40,-2312 "/>
<path fill="none" stroke="gray" d="M40,-2312C34,-2312 28,-2306 28,-2300"/>
<polyline fill="none" stroke="gray" points="28,-2300 28,-1387 "/>
<path fill="none" stroke="gray" d="M28,-1387C28,-1381 34,-1375 40,-1375"/>
<text text-anchor="middle" x="211.5" y="-2297" font-family="Times,serif" font-size="11.00" fill="gray">Model</text>
</g>
<g id="graph7" class="cluster"><title>cluster_\OSS\Result</title>
<polyline fill="none" stroke="gray" points="36,-484 403,-484 "/>
<path fill="none" stroke="gray" d="M403,-484C409,-484 415,-490 415,-496"/>
<polyline fill="none" stroke="gray" points="415,-496 415,-1355 "/>
<path fill="none" stroke="gray" d="M415,-1355C415,-1361 409,-1367 403,-1367"/>
<polyline fill="none" stroke="gray" points="403,-1367 36,-1367 "/>
<path fill="none" stroke="gray" d="M36,-1367C30,-1367 24,-1361 24,-1355"/>
<polyline fill="none" stroke="gray" points="24,-1355 24,-496 "/>
<path fill="none" stroke="gray" d="M24,-496C24,-490 30,-484 36,-484"/>
<text text-anchor="middle" x="219.5" y="-1352" font-family="Times,serif" font-size="11.00" fill="gray">Result</text>
</g>
<!-- \\OSS\\Core\\MimeTypes -->
<g id="node4" class="node"><title>\\OSS\\Core\\MimeTypes</title>
<polygon fill="none" stroke="black" points="340.911,-447 265.089,-447 265.089,-411 340.911,-411 340.911,-447"/>
<text text-anchor="middle" x="303" y="-424.6" font-family="Courier,monospace" font-size="11.00">MimeTypes</text>
</g>
<!-- \\OSS\\Core\\OssException -->
<g id="node5" class="node"><title>\\OSS\\Core\\OssException</title>
<polygon fill="none" stroke="black" points="350.713,-393 255.287,-393 255.287,-357 350.713,-357 350.713,-393"/>
<text text-anchor="middle" x="303" y="-370.6" font-family="Courier,monospace" font-size="11.00">OssException</text>
</g>
<!-- \\Exception -->
<g id="node50" class="node"><title>\\Exception</title>
<ellipse fill="none" stroke="black" cx="74" cy="-18" rx="52.7417" ry="18"/>
<text text-anchor="middle" x="74" y="-12.4" font-family="Times,serif" font-size="14.00" fill="gray">\Exception</text>
</g>
<!-- \\OSS\\Core\\OssException&#45;&gt;\\Exception -->
<g id="edge8" class="edge"><title>\\OSS\\Core\\OssException&#45;&gt;\\Exception</title>
<path fill="none" stroke="black" d="M255.227,-372.099C235.819,-368.706 214.306,-361.805 199,-348 107.918,-265.853 83.4493,-110.086 77.1174,-46.3068"/>
<polygon fill="none" stroke="black" points="80.5887,-45.8324 76.1911,-36.1933 73.6178,-46.4708 80.5887,-45.8324"/>
</g>
<!-- \\OSS\\Core\\OssUtil -->
<g id="node6" class="node"><title>\\OSS\\Core\\OssUtil</title>
<polygon fill="none" stroke="black" points="334.208,-339 271.792,-339 271.792,-303 334.208,-303 334.208,-339"/>
<text text-anchor="middle" x="303" y="-316.6" font-family="Courier,monospace" font-size="11.00">OssUtil</text>
</g>
<!-- \\OSS\\Http\\RequestCore -->
<g id="node8" class="node"><title>\\OSS\\Http\\RequestCore</title>
<polygon fill="none" stroke="black" points="347.113,-258 258.887,-258 258.887,-222 347.113,-222 347.113,-258"/>
<text text-anchor="middle" x="303" y="-235.6" font-family="Courier,monospace" font-size="11.00">RequestCore</text>
</g>
<!-- \\OSS\\Http\\RequestCore_Exception -->
<g id="node9" class="node"><title>\\OSS\\Http\\RequestCore_Exception</title>
<polygon fill="none" stroke="black" points="380.123,-204 225.877,-204 225.877,-168 380.123,-168 380.123,-204"/>
<text text-anchor="middle" x="303" y="-181.6" font-family="Courier,monospace" font-size="11.00">RequestCore_Exception</text>
</g>
<!-- \\OSS\\Http\\RequestCore_Exception&#45;&gt;\\Exception -->
<g id="edge10" class="edge"><title>\\OSS\\Http\\RequestCore_Exception&#45;&gt;\\Exception</title>
<path fill="none" stroke="black" d="M225.876,-171.603C216.463,-168.239 207.259,-164.097 199,-159 151.532,-129.706 112.121,-76.58 91.2036,-44.5674"/>
<polygon fill="none" stroke="black" points="93.8979,-42.2842 85.5598,-35.7477 88.0018,-46.0572 93.8979,-42.2842"/>
</g>
<!-- \\OSS\\Http\\ResponseCore -->
<g id="node10" class="node"><title>\\OSS\\Http\\ResponseCore</title>
<polygon fill="none" stroke="black" points="350.713,-150 255.287,-150 255.287,-114 350.713,-114 350.713,-150"/>
<text text-anchor="middle" x="303" y="-127.6" font-family="Courier,monospace" font-size="11.00">ResponseCore</text>
</g>
<!-- \\OSS\\Model\\BucketInfo -->
<g id="node12" class="node"><title>\\OSS\\Model\\BucketInfo</title>
<polygon fill="none" stroke="black" points="344.011,-2283 261.989,-2283 261.989,-2247 344.011,-2247 344.011,-2283"/>
<text text-anchor="middle" x="303" y="-2260.6" font-family="Courier,monospace" font-size="11.00">BucketInfo</text>
</g>
<!-- \\OSS\\Model\\BucketListInfo -->
<g id="node13" class="node"><title>\\OSS\\Model\\BucketListInfo</title>
<polygon fill="none" stroke="black" points="357.416,-2229 248.584,-2229 248.584,-2193 357.416,-2193 357.416,-2229"/>
<text text-anchor="middle" x="303" y="-2206.6" font-family="Courier,monospace" font-size="11.00">BucketListInfo</text>
</g>
<!-- \\OSS\\Model\\CorsConfig -->
<g id="node14" class="node"><title>\\OSS\\Model\\CorsConfig</title>
<polygon fill="none" stroke="black" points="344.011,-2175 261.989,-2175 261.989,-2139 344.011,-2139 344.011,-2175"/>
<text text-anchor="middle" x="303" y="-2152.6" font-family="Courier,monospace" font-size="11.00">CorsConfig</text>
</g>
<!-- \\OSS\\Model\\XmlConfig -->
<g id="node29" class="node"><title>\\OSS\\Model\\XmlConfig</title>
<polygon fill="none" stroke="black" points="111.911,-1797 36.0892,-1797 36.0892,-1761 111.911,-1761 111.911,-1797"/>
<text text-anchor="middle" x="74" y="-1774.6" font-family="Courier,monospace" font-size="11.00">XmlConfig</text>
</g>
<!-- \\OSS\\Model\\CorsConfig&#45;&gt;\\OSS\\Model\\XmlConfig -->
<g id="edge12" class="edge"><title>\\OSS\\Model\\CorsConfig&#45;&gt;\\OSS\\Model\\XmlConfig</title>
<path fill="none" stroke="black" stroke-dasharray="1,5" d="M261.795,-2155.28C240.761,-2152.4 215.937,-2145.58 199,-2130 102.813,-2041.5 81.2129,-1873.77 76.3829,-1807.23"/>
<polygon fill="none" stroke="black" points="79.865,-1806.84 75.7222,-1797.09 72.8798,-1807.29 79.865,-1806.84"/>
</g>
<!-- \\OSS\\Model\\CorsRule -->
<g id="node15" class="node"><title>\\OSS\\Model\\CorsRule</title>
<polygon fill="none" stroke="black" points="337.309,-2121 268.691,-2121 268.691,-2085 337.309,-2085 337.309,-2121"/>
<text text-anchor="middle" x="303" y="-2098.6" font-family="Courier,monospace" font-size="11.00">CorsRule</text>
</g>
<!-- \\OSS\\Model\\LifecycleAction -->
<g id="node16" class="node"><title>\\OSS\\Model\\LifecycleAction</title>
<polygon fill="none" stroke="black" points="360.516,-2067 245.484,-2067 245.484,-2031 360.516,-2031 360.516,-2067"/>
<text text-anchor="middle" x="303" y="-2044.6" font-family="Courier,monospace" font-size="11.00">LifecycleAction</text>
</g>
<!-- \\OSS\\Model\\LifecycleConfig -->
<g id="node17" class="node"><title>\\OSS\\Model\\LifecycleConfig</title>
<polygon fill="none" stroke="black" points="360.516,-2013 245.484,-2013 245.484,-1977 360.516,-1977 360.516,-2013"/>
<text text-anchor="middle" x="303" y="-1990.6" font-family="Courier,monospace" font-size="11.00">LifecycleConfig</text>
</g>
<!-- \\OSS\\Model\\LifecycleConfig&#45;&gt;\\OSS\\Model\\XmlConfig -->
<g id="edge14" class="edge"><title>\\OSS\\Model\\LifecycleConfig&#45;&gt;\\OSS\\Model\\XmlConfig</title>
<path fill="none" stroke="black" stroke-dasharray="1,5" d="M245.281,-1987.91C229.25,-1983.93 212.509,-1977.71 199,-1968 140.86,-1926.21 102.607,-1847.98 85.4263,-1806.48"/>
<polygon fill="none" stroke="black" points="88.5921,-1804.98 81.6071,-1797.01 82.0998,-1807.59 88.5921,-1804.98"/>
</g>
<!-- \\OSS\\Model\\LifecycleRule -->
<g id="node18" class="node"><title>\\OSS\\Model\\LifecycleRule</title>
<polygon fill="none" stroke="black" points="353.814,-1959 252.186,-1959 252.186,-1923 353.814,-1923 353.814,-1959"/>
<text text-anchor="middle" x="303" y="-1936.6" font-family="Courier,monospace" font-size="11.00">LifecycleRule</text>
</g>
<!-- \\OSS\\Model\\ListMultipartUploadInfo -->
<g id="node19" class="node"><title>\\OSS\\Model\\ListMultipartUploadInfo</title>
<polygon fill="none" stroke="black" points="386.825,-1905 219.175,-1905 219.175,-1869 386.825,-1869 386.825,-1905"/>
<text text-anchor="middle" x="303" y="-1882.6" font-family="Courier,monospace" font-size="11.00">ListMultipartUploadInfo</text>
</g>
<!-- \\OSS\\Model\\ListPartsInfo -->
<g id="node20" class="node"><title>\\OSS\\Model\\ListPartsInfo</title>
<polygon fill="none" stroke="black" points="353.814,-1851 252.186,-1851 252.186,-1815 353.814,-1815 353.814,-1851"/>
<text text-anchor="middle" x="303" y="-1828.6" font-family="Courier,monospace" font-size="11.00">ListPartsInfo</text>
</g>
<!-- \\OSS\\Model\\LoggingConfig -->
<g id="node21" class="node"><title>\\OSS\\Model\\LoggingConfig</title>
<polygon fill="none" stroke="black" points="353.814,-1797 252.186,-1797 252.186,-1761 353.814,-1761 353.814,-1797"/>
<text text-anchor="middle" x="303" y="-1774.6" font-family="Courier,monospace" font-size="11.00">LoggingConfig</text>
</g>
<!-- \\OSS\\Model\\LoggingConfig&#45;&gt;\\OSS\\Model\\XmlConfig -->
<g id="edge16" class="edge"><title>\\OSS\\Model\\LoggingConfig&#45;&gt;\\OSS\\Model\\XmlConfig</title>
<path fill="none" stroke="black" stroke-dasharray="1,5" d="M252.184,-1779C213.533,-1779 160.313,-1779 122.311,-1779"/>
<polygon fill="none" stroke="black" points="122.02,-1775.5 112.02,-1779 122.02,-1782.5 122.02,-1775.5"/>
</g>
<!-- \\OSS\\Model\\ObjectInfo -->
<g id="node22" class="node"><title>\\OSS\\Model\\ObjectInfo</title>
<polygon fill="none" stroke="black" points="344.011,-1743 261.989,-1743 261.989,-1707 344.011,-1707 344.011,-1743"/>
<text text-anchor="middle" x="303" y="-1720.6" font-family="Courier,monospace" font-size="11.00">ObjectInfo</text>
</g>
<!-- \\OSS\\Model\\ObjectListInfo -->
<g id="node23" class="node"><title>\\OSS\\Model\\ObjectListInfo</title>
<polygon fill="none" stroke="black" points="357.416,-1689 248.584,-1689 248.584,-1653 357.416,-1653 357.416,-1689"/>
<text text-anchor="middle" x="303" y="-1666.6" font-family="Courier,monospace" font-size="11.00">ObjectListInfo</text>
</g>
<!-- \\OSS\\Model\\PartInfo -->
<g id="node24" class="node"><title>\\OSS\\Model\\PartInfo</title>
<polygon fill="none" stroke="black" points="337.309,-1635 268.691,-1635 268.691,-1599 337.309,-1599 337.309,-1635"/>
<text text-anchor="middle" x="303" y="-1612.6" font-family="Courier,monospace" font-size="11.00">PartInfo</text>
</g>
<!-- \\OSS\\Model\\PrefixInfo -->
<g id="node25" class="node"><title>\\OSS\\Model\\PrefixInfo</title>
<polygon fill="none" stroke="black" points="344.011,-1581 261.989,-1581 261.989,-1545 344.011,-1545 344.011,-1581"/>
<text text-anchor="middle" x="303" y="-1558.6" font-family="Courier,monospace" font-size="11.00">PrefixInfo</text>
</g>
<!-- \\OSS\\Model\\RefererConfig -->
<g id="node26" class="node"><title>\\OSS\\Model\\RefererConfig</title>
<polygon fill="none" stroke="black" points="353.814,-1527 252.186,-1527 252.186,-1491 353.814,-1491 353.814,-1527"/>
<text text-anchor="middle" x="303" y="-1504.6" font-family="Courier,monospace" font-size="11.00">RefererConfig</text>
</g>
<!-- \\OSS\\Model\\RefererConfig&#45;&gt;\\OSS\\Model\\XmlConfig -->
<g id="edge18" class="edge"><title>\\OSS\\Model\\RefererConfig&#45;&gt;\\OSS\\Model\\XmlConfig</title>
<path fill="none" stroke="black" stroke-dasharray="1,5" d="M252.026,-1513.5C233.785,-1517.23 213.978,-1523.95 199,-1536 128.555,-1592.69 94.2157,-1699.98 81.3089,-1750.86"/>
<polygon fill="none" stroke="black" points="77.8481,-1750.28 78.8747,-1760.83 84.6481,-1751.94 77.8481,-1750.28"/>
</g>
<!-- \\OSS\\Model\\UploadInfo -->
<g id="node27" class="node"><title>\\OSS\\Model\\UploadInfo</title>
<polygon fill="none" stroke="black" points="344.011,-1473 261.989,-1473 261.989,-1437 344.011,-1437 344.011,-1473"/>
<text text-anchor="middle" x="303" y="-1450.6" font-family="Courier,monospace" font-size="11.00">UploadInfo</text>
</g>
<!-- \\OSS\\Model\\WebsiteConfig -->
<g id="node28" class="node"><title>\\OSS\\Model\\WebsiteConfig</title>
<polygon fill="none" stroke="black" points="353.814,-1419 252.186,-1419 252.186,-1383 353.814,-1383 353.814,-1419"/>
<text text-anchor="middle" x="303" y="-1396.6" font-family="Courier,monospace" font-size="11.00">WebsiteConfig</text>
</g>
<!-- \\OSS\\Model\\WebsiteConfig&#45;&gt;\\OSS\\Model\\XmlConfig -->
<g id="edge20" class="edge"><title>\\OSS\\Model\\WebsiteConfig&#45;&gt;\\OSS\\Model\\XmlConfig</title>
<path fill="none" stroke="black" stroke-dasharray="1,5" d="M251.942,-1404.33C233.368,-1407.89 213.352,-1414.8 199,-1428 102.813,-1516.5 81.2129,-1684.23 76.3829,-1750.77"/>
<polygon fill="none" stroke="black" points="72.8798,-1750.71 75.7222,-1760.91 79.865,-1751.16 72.8798,-1750.71"/>
</g>
<!-- \\OSS\\Result\\AclResult -->
<g id="node31" class="node"><title>\\OSS\\Result\\AclResult</title>
<polygon fill="none" stroke="black" points="340.911,-1338 265.089,-1338 265.089,-1302 340.911,-1302 340.911,-1338"/>
<text text-anchor="middle" x="303" y="-1315.6" font-family="Courier,monospace" font-size="11.00">AclResult</text>
</g>
<!-- \\OSS\\Result\\Result -->
<g id="node46" class="node"><title>\\OSS\\Result\\Result</title>
<polygon fill="none" stroke="black" points="115.5,-933 32.5,-933 32.5,-897 115.5,-897 115.5,-933"/>
<text text-anchor="start" x="41" y="-916.5" font-family="Courier,monospace" font-size="11.00">«abstract»</text>
<text text-anchor="start" x="54.5" y="-905.5" font-family="Courier,monospace" font-size="11.00">Result</text>
</g>
<!-- \\OSS\\Result\\AclResult&#45;&gt;\\OSS\\Result\\Result -->
<g id="edge22" class="edge"><title>\\OSS\\Result\\AclResult&#45;&gt;\\OSS\\Result\\Result</title>
<path fill="none" stroke="black" d="M264.924,-1318.85C243.193,-1316.28 216.635,-1309.6 199,-1293 96.3583,-1196.4 78.563,-1013.59 75.5667,-943.415"/>
<polygon fill="none" stroke="black" points="79.055,-943.02 75.2022,-933.15 72.0594,-943.268 79.055,-943.02"/>
</g>
<!-- \\OSS\\Result\\BodyResult -->
<g id="node32" class="node"><title>\\OSS\\Result\\BodyResult</title>
<polygon fill="none" stroke="black" points="344.011,-1284 261.989,-1284 261.989,-1248 344.011,-1248 344.011,-1284"/>
<text text-anchor="middle" x="303" y="-1261.6" font-family="Courier,monospace" font-size="11.00">BodyResult</text>
</g>
<!-- \\OSS\\Result\\BodyResult&#45;&gt;\\OSS\\Result\\Result -->
<g id="edge24" class="edge"><title>\\OSS\\Result\\BodyResult&#45;&gt;\\OSS\\Result\\Result</title>
<path fill="none" stroke="black" d="M261.954,-1264.11C240.967,-1261.17 216.138,-1254.36 199,-1239 109.334,-1158.62 84.0913,-1006.17 77.3353,-943.249"/>
<polygon fill="none" stroke="black" points="80.8142,-942.863 76.3395,-933.259 73.8487,-943.557 80.8142,-942.863"/>
</g>
<!-- \\OSS\\Result\\ExistResult -->
<g id="node33" class="node"><title>\\OSS\\Result\\ExistResult</title>
<polygon fill="none" stroke="black" points="347.113,-1230 258.887,-1230 258.887,-1194 347.113,-1194 347.113,-1230"/>
<text text-anchor="middle" x="303" y="-1207.6" font-family="Courier,monospace" font-size="11.00">ExistResult</text>
</g>
<!-- \\OSS\\Result\\ExistResult&#45;&gt;\\OSS\\Result\\Result -->
<g id="edge26" class="edge"><title>\\OSS\\Result\\ExistResult&#45;&gt;\\OSS\\Result\\Result</title>
<path fill="none" stroke="black" d="M258.786,-1209.11C238.7,-1205.8 215.637,-1198.97 199,-1185 122.33,-1120.64 90.6437,-998.702 79.7993,-943.465"/>
<polygon fill="none" stroke="black" points="83.1845,-942.527 77.9011,-933.344 76.3044,-943.817 83.1845,-942.527"/>
</g>
<!-- \\OSS\\Result\\GetCorsResult -->
<g id="node34" class="node"><title>\\OSS\\Result\\GetCorsResult</title>
<polygon fill="none" stroke="black" points="353.814,-1176 252.186,-1176 252.186,-1140 353.814,-1140 353.814,-1176"/>
<text text-anchor="middle" x="303" y="-1153.6" font-family="Courier,monospace" font-size="11.00">GetCorsResult</text>
</g>
<!-- \\OSS\\Result\\GetCorsResult&#45;&gt;\\OSS\\Result\\Result -->
<g id="edge28" class="edge"><title>\\OSS\\Result\\GetCorsResult&#45;&gt;\\OSS\\Result\\Result</title>
<path fill="none" stroke="black" d="M252.073,-1153.05C233.941,-1149.26 214.197,-1142.62 199,-1131 134.663,-1081.78 98.0858,-988.933 83.092,-942.663"/>
<polygon fill="none" stroke="black" points="86.3937,-941.494 80.0578,-933.003 79.7154,-943.592 86.3937,-941.494"/>
</g>
<!-- \\OSS\\Result\\GetLifecycleResult -->
<g id="node35" class="node"><title>\\OSS\\Result\\GetLifecycleResult</title>
<polygon fill="none" stroke="black" points="370.319,-1122 235.681,-1122 235.681,-1086 370.319,-1086 370.319,-1122"/>
<text text-anchor="middle" x="303" y="-1099.6" font-family="Courier,monospace" font-size="11.00">GetLifecycleResult</text>
</g>
<!-- \\OSS\\Result\\GetLifecycleResult&#45;&gt;\\OSS\\Result\\Result -->
<g id="edge30" class="edge"><title>\\OSS\\Result\\GetLifecycleResult&#45;&gt;\\OSS\\Result\\Result</title>
<path fill="none" stroke="black" d="M235.495,-1093.47C222.718,-1089.58 209.929,-1084.27 199,-1077 147.022,-1042.43 107.839,-978.672 88.471,-942.304"/>
<polygon fill="none" stroke="black" points="91.4803,-940.505 83.7583,-933.251 85.2712,-943.737 91.4803,-940.505"/>
</g>
<!-- \\OSS\\Result\\GetLoggingResult -->
<g id="node36" class="node"><title>\\OSS\\Result\\GetLoggingResult</title>
<polygon fill="none" stroke="black" points="363.618,-1068 242.382,-1068 242.382,-1032 363.618,-1032 363.618,-1068"/>
<text text-anchor="middle" x="303" y="-1045.6" font-family="Courier,monospace" font-size="11.00">GetLoggingResult</text>
</g>
<!-- \\OSS\\Result\\GetLoggingResult&#45;&gt;\\OSS\\Result\\Result -->
<g id="edge32" class="edge"><title>\\OSS\\Result\\GetLoggingResult&#45;&gt;\\OSS\\Result\\Result</title>
<path fill="none" stroke="black" d="M242.236,-1039.28C227.596,-1035.34 212.318,-1030.04 199,-1023 158.921,-1001.8 120.848,-965.343 97.716,-940.714"/>
<polygon fill="none" stroke="black" points="100.103,-938.139 90.7471,-933.167 94.9602,-942.888 100.103,-938.139"/>
</g>
<!-- \\OSS\\Result\\GetRefererResult -->
<g id="node37" class="node"><title>\\OSS\\Result\\GetRefererResult</title>
<polygon fill="none" stroke="black" points="363.618,-1014 242.382,-1014 242.382,-978 363.618,-978 363.618,-1014"/>
<text text-anchor="middle" x="303" y="-991.6" font-family="Courier,monospace" font-size="11.00">GetRefererResult</text>
</g>
<!-- \\OSS\\Result\\GetRefererResult&#45;&gt;\\OSS\\Result\\Result -->
<g id="edge34" class="edge"><title>\\OSS\\Result\\GetRefererResult&#45;&gt;\\OSS\\Result\\Result</title>
<path fill="none" stroke="black" d="M242.162,-981.984C227.89,-978.183 212.799,-973.781 199,-969 172.87,-959.946 144.538,-947.794 121.561,-937.31"/>
<polygon fill="none" stroke="black" points="122.935,-934.09 112.388,-933.084 120.006,-940.448 122.935,-934.09"/>
</g>
<!-- \\OSS\\Result\\GetWebsiteResult -->
<g id="node38" class="node"><title>\\OSS\\Result\\GetWebsiteResult</title>
<polygon fill="none" stroke="black" points="363.618,-960 242.382,-960 242.382,-924 363.618,-924 363.618,-960"/>
<text text-anchor="middle" x="303" y="-937.6" font-family="Courier,monospace" font-size="11.00">GetWebsiteResult</text>
</g>
<!-- \\OSS\\Result\\GetWebsiteResult&#45;&gt;\\OSS\\Result\\Result -->
<g id="edge36" class="edge"><title>\\OSS\\Result\\GetWebsiteResult&#45;&gt;\\OSS\\Result\\Result</title>
<path fill="none" stroke="black" d="M242.358,-934.906C206.169,-930.602 160.469,-925.166 125.972,-921.063"/>
<polygon fill="none" stroke="black" points="125.992,-917.541 115.649,-919.835 125.165,-924.492 125.992,-917.541"/>
</g>
<!-- \\OSS\\Result\\HeaderResult -->
<g id="node39" class="node"><title>\\OSS\\Result\\HeaderResult</title>
<polygon fill="none" stroke="black" points="350.713,-906 255.287,-906 255.287,-870 350.713,-870 350.713,-906"/>
<text text-anchor="middle" x="303" y="-883.6" font-family="Courier,monospace" font-size="11.00">HeaderResult</text>
</g>
<!-- \\OSS\\Result\\HeaderResult&#45;&gt;\\OSS\\Result\\Result -->
<g id="edge38" class="edge"><title>\\OSS\\Result\\HeaderResult&#45;&gt;\\OSS\\Result\\Result</title>
<path fill="none" stroke="black" d="M255.241,-893.562C217.473,-898.054 164.414,-904.365 125.645,-908.976"/>
<polygon fill="none" stroke="black" points="125.132,-905.512 115.615,-910.169 125.959,-912.463 125.132,-905.512"/>
</g>
<!-- \\OSS\\Result\\InitiateMultipartUploadResult -->
<g id="node40" class="node"><title>\\OSS\\Result\\InitiateMultipartUploadResult</title>
<polygon fill="none" stroke="black" points="406.932,-852 199.068,-852 199.068,-816 406.932,-816 406.932,-852"/>
<text text-anchor="middle" x="303" y="-829.6" font-family="Courier,monospace" font-size="11.00">InitiateMultipartUploadResult</text>
</g>
<!-- \\OSS\\Result\\InitiateMultipartUploadResult&#45;&gt;\\OSS\\Result\\Result -->
<g id="edge40" class="edge"><title>\\OSS\\Result\\InitiateMultipartUploadResult&#45;&gt;\\OSS\\Result\\Result</title>
<path fill="none" stroke="black" d="M227.304,-852.05C217.707,-854.816 208.071,-857.819 199,-861 165.955,-872.589 159.127,-879.066 127,-893 126.309,-893.3 125.612,-893.602 124.911,-893.905"/>
<polygon fill="none" stroke="black" points="123.429,-890.732 115.624,-897.896 126.193,-897.163 123.429,-890.732"/>
</g>
<!-- \\OSS\\Result\\ListBucketsResult -->
<g id="node41" class="node"><title>\\OSS\\Result\\ListBucketsResult</title>
<polygon fill="none" stroke="black" points="367.218,-798 238.782,-798 238.782,-762 367.218,-762 367.218,-798"/>
<text text-anchor="middle" x="303" y="-775.6" font-family="Courier,monospace" font-size="11.00">ListBucketsResult</text>
</g>
<!-- \\OSS\\Result\\ListBucketsResult&#45;&gt;\\OSS\\Result\\Result -->
<g id="edge42" class="edge"><title>\\OSS\\Result\\ListBucketsResult&#45;&gt;\\OSS\\Result\\Result</title>
<path fill="none" stroke="black" d="M238.712,-790.039C224.947,-793.97 210.944,-799.427 199,-807 156.9,-833.693 167.073,-863.35 127,-893 126.113,-893.656 125.204,-894.297 124.277,-894.922"/>
<polygon fill="none" stroke="black" points="122.313,-892.018 115.518,-900.147 125.899,-898.03 122.313,-892.018"/>
</g>
<!-- \\OSS\\Result\\ListMultipartUploadResult -->
<g id="node42" class="node"><title>\\OSS\\Result\\ListMultipartUploadResult</title>
<polygon fill="none" stroke="black" points="393.527,-744 212.473,-744 212.473,-708 393.527,-708 393.527,-744"/>
<text text-anchor="middle" x="303" y="-721.6" font-family="Courier,monospace" font-size="11.00">ListMultipartUploadResult</text>
</g>
<!-- \\OSS\\Result\\ListMultipartUploadResult&#45;&gt;\\OSS\\Result\\Result -->
<g id="edge44" class="edge"><title>\\OSS\\Result\\ListMultipartUploadResult&#45;&gt;\\OSS\\Result\\Result</title>
<path fill="none" stroke="black" d="M212.53,-744.126C207.738,-746.704 203.182,-749.645 199,-753 144.422,-796.782 178.29,-845.409 127,-893 126.05,-893.881 125.06,-894.73 124.036,-895.548"/>
<polygon fill="none" stroke="black" points="121.964,-892.724 115.632,-901.218 125.879,-898.526 121.964,-892.724"/>
</g>
<!-- \\OSS\\Result\\ListObjectsResult -->
<g id="node43" class="node"><title>\\OSS\\Result\\ListObjectsResult</title>
<polygon fill="none" stroke="black" points="367.218,-690 238.782,-690 238.782,-654 367.218,-654 367.218,-690"/>
<text text-anchor="middle" x="303" y="-667.6" font-family="Courier,monospace" font-size="11.00">ListObjectsResult</text>
</g>
<!-- \\OSS\\Result\\ListObjectsResult&#45;&gt;\\OSS\\Result\\Result -->
<g id="edge46" class="edge"><title>\\OSS\\Result\\ListObjectsResult&#45;&gt;\\OSS\\Result\\Result</title>
<path fill="none" stroke="black" d="M238.701,-678.586C224.309,-682.634 210.031,-689.011 199,-699 130.83,-760.734 190.557,-826.526 127,-893 125.963,-894.085 124.863,-895.119 123.713,-896.104"/>
<polygon fill="none" stroke="black" points="121.64,-893.283 115.503,-901.919 125.687,-898.995 121.64,-893.283"/>
</g>
<!-- \\OSS\\Result\\ListPartsResult -->
<g id="node44" class="node"><title>\\OSS\\Result\\ListPartsResult</title>
<polygon fill="none" stroke="black" points="360.516,-636 245.484,-636 245.484,-600 360.516,-600 360.516,-636"/>
<text text-anchor="middle" x="303" y="-613.6" font-family="Courier,monospace" font-size="11.00">ListPartsResult</text>
</g>
<!-- \\OSS\\Result\\ListPartsResult&#45;&gt;\\OSS\\Result\\Result -->
<g id="edge48" class="edge"><title>\\OSS\\Result\\ListPartsResult&#45;&gt;\\OSS\\Result\\Result</title>
<path fill="none" stroke="black" d="M245.417,-622.185C228.641,-626.013 211.447,-632.875 199,-645 116.787,-725.087 203.244,-807.211 127,-893 126.003,-894.122 124.939,-895.188 123.82,-896.202"/>
<polygon fill="none" stroke="black" points="121.725,-893.398 115.755,-902.152 125.88,-899.031 121.725,-893.398"/>
</g>
<!-- \\OSS\\Result\\PutSetDeleteResult -->
<g id="node45" class="node"><title>\\OSS\\Result\\PutSetDeleteResult</title>
<polygon fill="none" stroke="black" points="370.319,-582 235.681,-582 235.681,-546 370.319,-546 370.319,-582"/>
<text text-anchor="middle" x="303" y="-559.6" font-family="Courier,monospace" font-size="11.00">PutSetDeleteResult</text>
</g>
<!-- \\OSS\\Result\\PutSetDeleteResult&#45;&gt;\\OSS\\Result\\Result -->
<g id="edge50" class="edge"><title>\\OSS\\Result\\PutSetDeleteResult&#45;&gt;\\OSS\\Result\\Result</title>
<path fill="none" stroke="black" d="M235.68,-570.295C222.063,-574.41 208.888,-580.889 199,-591 102.526,-689.653 216.134,-787.669 127,-893 126.011,-894.169 124.948,-895.278 123.826,-896.328"/>
<polygon fill="none" stroke="black" points="121.563,-893.651 115.674,-902.458 125.77,-899.245 121.563,-893.651"/>
</g>
<!-- \\OSS\\Result\\UploadPartResult -->
<g id="node47" class="node"><title>\\OSS\\Result\\UploadPartResult</title>
<polygon fill="none" stroke="black" points="363.618,-528 242.382,-528 242.382,-492 363.618,-492 363.618,-528"/>
<text text-anchor="middle" x="303" y="-505.6" font-family="Courier,monospace" font-size="11.00">UploadPartResult</text>
</g>
<!-- \\OSS\\Result\\UploadPartResult&#45;&gt;\\OSS\\Result\\Result -->
<g id="edge52" class="edge"><title>\\OSS\\Result\\UploadPartResult&#45;&gt;\\OSS\\Result\\Result</title>
<path fill="none" stroke="black" d="M242.116,-514.211C226.19,-518.133 210.299,-525.04 199,-537 88.1428,-654.341 229.137,-767.994 127,-893 126.012,-894.21 124.945,-895.354 123.813,-896.437"/>
<polygon fill="none" stroke="black" points="121.39,-893.882 115.546,-902.719 125.625,-899.455 121.39,-893.882"/>
</g>
<!-- \\OSS\\OssClient -->
<g id="node48" class="node"><title>\\OSS\\OssClient</title>
<polygon fill="none" stroke="black" points="340.911,-96 265.089,-96 265.089,-60 340.911,-60 340.911,-96"/>
<text text-anchor="middle" x="303" y="-73.6" font-family="Courier,monospace" font-size="11.00">OssClient</text>
</g>
</g>
</svg>
